<svg id="Camada_1" data-name="Camada 1" xmlns="http://www.w3.org/2000/svg" viewBox="0 0 630.99 117.95"><defs><style>.cls-1{fill:#3498db;}.cls-2{fill:#34495e;}</style></defs><title>Coins Valley Logo</title><path class="cls-1" d="M215.94,115.13a19.88,19.88,0,0,1-8.52,3.92,47.29,47.29,0,0,1-10.61,1.23A33.05,33.05,0,0,1,184.49,118a24.51,24.51,0,0,1-10-7.54,38.43,38.43,0,0,1-6.74-13.86,77.76,77.76,0,0,1-2.45-21.09q0-13,2.76-21.58a38.15,38.15,0,0,1,7.24-13.67,24.82,24.82,0,0,1,10.24-7.17A34,34,0,0,1,197.18,31a49.5,49.5,0,0,1,10.49,1,40.61,40.61,0,0,1,7.3,2.21L211.9,47.8a21.48,21.48,0,0,0-5.46-1.9,35.71,35.71,0,0,0-7.42-.67,14.42,14.42,0,0,0-13,7.36q-4.54,7.36-4.54,23.06a67.2,67.2,0,0,0,1,12.32,31.29,31.29,0,0,0,3.31,9.63,17.08,17.08,0,0,0,5.76,6.25A15.41,15.41,0,0,0,200,106a20.71,20.71,0,0,0,7.36-1.17,29,29,0,0,0,5.52-2.76Z" transform="translate(-15 -25.45)"/><path class="cls-1" d="M214.84,87.9q0-16.31,6.38-24.28t17.78-8q12.26,0,18.27,8.09t6,24.16q0,16.43-6.38,24.34T239,120.15Q214.84,120.15,214.84,87.9Zm15.08,0q0,9.2,2.08,14.23t7,5a7.37,7.37,0,0,0,6.93-4.35q2.27-4.35,2.27-14.9,0-9.44-2.08-14.35T239,68.65q-4.29,0-6.68,4.35T229.92,87.9Z" transform="translate(-15 -25.45)"/><path class="cls-1" d="M268.8,39.95a8.34,8.34,0,0,1,2.33-6.07,8.82,8.82,0,0,1,6.62-2.39,9.85,9.85,0,0,1,6.87,2.33,7.88,7.88,0,0,1,2.58,6.13,7.5,7.5,0,0,1-2.58,6,10.19,10.19,0,0,1-6.87,2.21,9.09,9.09,0,0,1-6.62-2.27A7.93,7.93,0,0,1,268.8,39.95ZM270,57h15v61H270Z" transform="translate(-15 -25.45)"/><path class="cls-1" d="M325,118V81.35q0-6.82-1.61-9.55t-5.46-2.73a8.39,8.39,0,0,0-5.58,2A10.83,10.83,0,0,0,309,76v43H294V57h11.47l1.69,7h.7A20,20,0,0,1,314,58q3.91-2.5,10.21-2.5a19.29,19.29,0,0,1,6.74,1.1,11.39,11.39,0,0,1,5,3.6,16.88,16.88,0,0,1,3,6.72,45.79,45.79,0,0,1,1,10.45V118Z" transform="translate(-15 -25.45)"/><path class="cls-1" d="M367.52,102.25a6.15,6.15,0,0,0-1.66-4.35,19.12,19.12,0,0,0-4.23-3.31q-2.58-1.53-5.46-3.13a29.09,29.09,0,0,1-5.46-3.92,18.93,18.93,0,0,1-4.23-5.64,18.58,18.58,0,0,1-1.66-8.34q0-8.58,4.66-13.24t13.74-4.66a42.94,42.94,0,0,1,10.18,1.17,27.23,27.23,0,0,1,7.6,2.88L377.57,71a47.66,47.66,0,0,0-5.64-1.9,24.22,24.22,0,0,0-6.5-.92q-6,0-6,5A5,5,0,0,0,361.08,77a23,23,0,0,0,4.23,3q2.58,1.47,5.46,3.07a27.87,27.87,0,0,1,5.46,4,18.34,18.34,0,0,1,5.89,14.29q0,8.46-5.15,13.61t-15.33,5.15a40.11,40.11,0,0,1-9.87-1.23,25.19,25.19,0,0,1-7.79-3.19L348,104a32,32,0,0,0,5.95,2.58,22.5,22.5,0,0,0,7.05,1.1,7.94,7.94,0,0,0,4.66-1.29A4.66,4.66,0,0,0,367.52,102.25Z" transform="translate(-15 -25.45)"/><path class="cls-2" d="M417.42,83.31,419.13,98h.49l2-14.81L434.06,33h16.17l-25.86,86H412.66L386.56,33h18.13Z" transform="translate(-15 -25.45)"/><path class="cls-2" d="M447,60.92a33.27,33.27,0,0,1,9.2-3.56A52.89,52.89,0,0,1,468.67,56q10.42,0,14.53,5.4t4.11,15.33q0,5.77-.31,11.34T486.58,99q-.12,5.33.18,10.3a29.64,29.64,0,0,0,1.66,8.7h-11.9l-2.33-7h-.49a15.56,15.56,0,0,1-5.52,6.09,16,16,0,0,1-9,2.33q-7.24,0-11.41-4.84t-4.17-12.94q0-11,7.85-15.7T472.72,82q.61-7.11-.92-10.3t-6.56-3.19a35.67,35.67,0,0,0-7.6.86,28.16,28.16,0,0,0-7,2.45Zm17.57,46a8.42,8.42,0,0,0,5.4-1.66,10.93,10.93,0,0,0,3.07-3.62V91.46a24.08,24.08,0,0,0-5.4-.12,14.81,14.81,0,0,0-4.54,1.1A7.32,7.32,0,0,0,459.94,95a7.17,7.17,0,0,0-1.17,4.23,9.22,9.22,0,0,0,1.53,5.76A5.07,5.07,0,0,0,464.54,106.91Z" transform="translate(-15 -25.45)"/><path class="cls-2" d="M511,99a15.29,15.29,0,0,0,.88,6.13,3,3,0,0,0,2.9,1.84,11.5,11.5,0,0,0,2.33-.25,15.59,15.59,0,0,0,2.71-.86l1.39,11.77a17.57,17.57,0,0,1-5.17,1.84,32.49,32.49,0,0,1-7.44.86q-6.3,0-9.45-3.07T496,106.83V33h15Z" transform="translate(-15 -25.45)"/><path class="cls-2" d="M539,99a15.29,15.29,0,0,0,.88,6.13,3,3,0,0,0,2.9,1.84,11.5,11.5,0,0,0,2.33-.25,15.59,15.59,0,0,0,2.71-.86l1.39,11.77a17.57,17.57,0,0,1-5.17,1.84,32.49,32.49,0,0,1-7.44.86q-6.3,0-9.45-3.07T524,106.83V33h15Z" transform="translate(-15 -25.45)"/><path class="cls-2" d="M593,114.07a23.52,23.52,0,0,1-8.34,4.41,35.44,35.44,0,0,1-11,1.72,25.15,25.15,0,0,1-11-2.21,19.31,19.31,0,0,1-7.54-6.38,28.87,28.87,0,0,1-4.35-10.12A58.9,58.9,0,0,1,549.37,88q0-16.56,6.56-24.47t18.21-7.91a25.07,25.07,0,0,1,7.6,1.17,16.68,16.68,0,0,1,6.56,3.92A20,20,0,0,1,593,68a32.45,32.45,0,0,1,1.78,11.59q0,2.7-.31,5.76T593.51,92h-29.8q.24,7.6,3.19,11.65t9.44,4a20.16,20.16,0,0,0,7.17-1.23,19,19,0,0,0,5-2.58Zm-19.13-46.3a7.69,7.69,0,0,0-7,3.74q-2.33,3.74-2.7,10.49h16.92q.37-7-1.47-10.61A6.07,6.07,0,0,0,573.89,67.77Z" transform="translate(-15 -25.45)"/><path class="cls-2" d="M620.62,91.44l1.59,9.56h.61l1.1-9.68L631,57h15l-15.32,55.28q-2.09,7.23-3.92,13a64.44,64.44,0,0,1-3.92,9.8,19.18,19.18,0,0,1-4.72,6.19,9.69,9.69,0,0,1-6.31,2.14,28.33,28.33,0,0,1-5-.42,12.86,12.86,0,0,1-4.11-1.4l2.45-12.39a8.15,8.15,0,0,0,3.25.55,5,5,0,0,0,3.06-1.24,10,10,0,0,0,2.51-3.65,29.32,29.32,0,0,0,1.84-6.57L594.51,57H612Z" transform="translate(-15 -25.45)"/><path class="cls-2" d="M132.55,27.41c.45-1.41-.34-2.22-1.76-1.82,0,0-31.62,10-56.35,10-23.45,0-57.59-10-57.59-10-1.43-.38-2.2.45-1.72,1.84l3.57,10.38c.16.39-.39.41-.58.4a2.37,2.37,0,0,0-.66,4.66c1.41.38,31.52,9.33,57,9.33,26.88,0,54.76-8.92,56.08-9.3a2.37,2.37,0,0,0,1.62-2.93,2.12,2.12,0,0,0-2.65-1.68s-.54.11-.36-.39Zm0,0" transform="translate(-15 -25.45)"/><path class="cls-1" d="M112.26,56.14a1.63,1.63,0,0,0-1.92-1.42l-9.89,1.64a2,2,0,0,0-1.62,2L100,78.26A1.63,1.63,0,0,1,98.31,80H80.8A1.8,1.8,0,0,1,79,78.2V59.38a1.71,1.71,0,0,0-1.74-1.75s-1.63,0-3.29,0c-1.95,0-4.23-.09-4.23-.09A1.7,1.7,0,0,0,68,59.32V78.2A1.8,1.8,0,0,1,66.2,80H49.63a1.68,1.68,0,0,1-1.69-1.79l1.18-20.76a2,2,0,0,0-1.68-2.07L37.19,53.67a1.69,1.69,0,0,0-2,1.46L32.33,78.22a2.1,2.1,0,0,1-2,1.78H25.8A1.8,1.8,0,0,0,24,81.8v7.4A1.8,1.8,0,0,0,25.8,91h3.08a1.59,1.59,0,0,1,1.58,1.85l-3.61,30.38A1.56,1.56,0,0,0,28.42,125h15a1.93,1.93,0,0,0,1.9-1.8L47,92.8a1.93,1.93,0,0,1,1.9-1.8H98a2,2,0,0,1,1.9,1.86l1.66,30.34a1.93,1.93,0,0,0,1.9,1.8h15a1.56,1.56,0,0,0,1.58-1.78l-3.61-30.38A1.59,1.59,0,0,1,118,91h3.2a1.8,1.8,0,0,0,1.8-1.8V81.8a1.8,1.8,0,0,0-1.8-1.8H117a2.09,2.09,0,0,1-2-1.78Zm-.08-.47" transform="translate(-15 -25.45)"/></svg>